# xmcd CD database file
#
# Track frame offsets:
#	150
#	12792
#	25713
#	42246
#	55721
#	70131
#	84842
#	97616
#	110897
#	125202
#	138327
#	153877
#	167658
#	182332
#	198116
#
# Disc length: 2824 seconds
#
# Revision: 0
# Processed by: cddbd v1.5.2PL0 Copyright (c) Steve Scherf et al.
# Submitted via: CDex 1.70beta2
#
DISCID=b00b060f
DTITLE=Jimmei Allen - Mercury Lane
DYEAR=2019
DGENRE=Country
TTITLE0=American Heartbreaker 
TTITLE1=Make Me Want To       
TTITLE2=Deserve To Be          
TTITLE3=How To Be Single        
TTITLE4=Wait For It                    
TTITLE5=High Life
TTITLE6=21
TTITLE7=Underdogs
TTITLE8=Like You Do
TTITLE9=Back Of Your Mind
TTITLE10=Boy Gets A Truck
TTITLE11=Country Lines
TTITLE12=Best Shot
TTITLE13=Warrior
TTITLE14=All tractor Ain't  Green
EXTD=YEAR: 2019
EXTT0=
EXTT1=
EXTT2=
EXTT3=
EXTT4=
EXTT5=
EXTT6=
EXTT7=
EXTT8=
EXTT9=
EXTT10=
EXTT11=
EXTT12=
EXTT13=
EXTT14=
PLAYORDER=
